<svg id="Layer_1" data-name="Layer 1" xmlns="http://www.w3.org/2000/svg" viewBox="0 0 148.46 169.5"><defs><style>.cls-1{fill:#fff;stroke:#000;stroke-miterlimit:10;stroke-width:0.2px;}.cls-2,.cls-3{font-size:13.06px;font-family:PTSans-Bold, PT Sans;font-weight:700;}.cls-3,.cls-4{fill:#f7981d;}</style></defs><title>marker</title><polygon class="cls-1" points="144.37 169.25 84.78 124.55 124.12 81.82 144.37 169.25"/><circle class="cls-1" cx="76.08" cy="74.2" r="67.55"/><text class="cls-2" transform="matrix(-0.2, -0.98, 1.27, -0.26, 35.93, 86.39)">Q</text><text class="cls-2" transform="matrix(0.02, -1, 1.3, 0.02, 34.21, 77.69)">U</text><text class="cls-2" transform="translate(34.38 69.33) rotate(-77.37) scale(1 1.3)">A</text><text class="cls-2" transform="translate(36.16 61.46) rotate(-65.92) scale(1 1.3)">R</text><text class="cls-2" transform="matrix(0.57, -0.82, 1.07, 0.73, 39.19, 54.65)">T</text><text class="cls-2" transform="translate(43.12 48.74) rotate(-44.41) scale(1 1.3)">O</text><text class="cls-2" transform="matrix(0.84, -0.54, 0.71, 1.09, 49.57, 42.58)">S</text><text class="cls-2" transform="translate(55.74 38.75) rotate(-25.21) scale(1 1.3)"> </text><text class="cls-2" transform="matrix(0.93, -0.36, 0.47, 1.21, 58.35, 37.51)">.</text><text class="cls-2" transform="matrix(0.96, -0.29, 0.38, 1.24, 60.98, 36.48)"> </text><text class="cls-3" transform="translate(64.38 35.28) rotate(-8.55) scale(1 1.3)">R</text><text class="cls-3" transform="translate(71.89 34.08) rotate(2.99) scale(1 1.3)">O</text><text class="cls-3" transform="translate(80.76 34.56) rotate(15.62) scale(1 1.3)">O</text><text class="cls-3" transform="translate(89.3 36.85) rotate(29.38) scale(1 1.3)">M</text><text class="cls-3" transform="matrix(0.74, 0.67, -0.87, 0.97, 98.39, 42.2)">S</text><text class="cls-3" transform="matrix(0.64, 0.76, -0.99, 0.84, 103.67, 47.17)"> </text><text class="cls-2" transform="matrix(0.59, 0.81, -1.05, 0.76, 105.56, 49.38)">.</text><text class="cls-2" transform="translate(107.23 51.65) rotate(58.07) scale(1 1.3)"> </text><text class="cls-2" transform="matrix(0.41, 0.91, -1.19, 0.53, 109.18, 54.55)">C</text><text class="cls-2" transform="matrix(0.22, 0.98, -1.27, 0.28, 112.28, 61.34)">H</text><text class="cls-2" transform="matrix(0.01, 1, -1.3, 0.01, 114.12, 69.79)">A</text><text class="cls-2" transform="translate(114.33 77.82) rotate(102.63) scale(1 1.3)">M</text><text class="cls-2" transform="translate(111.87 88.06) rotate(115.68) scale(1 1.3)">B</text><text class="cls-2" transform="matrix(-0.59, 0.8, -1.05, -0.77, 108.39, 95.17)">E</text><text class="cls-2" transform="translate(104.25 100.84) rotate(137.24) scale(1 1.3)">R</text><text class="cls-2" transform="matrix(-0.85, 0.53, -0.69, -1.1, 98.27, 106.27)">S</text><text class="cls-2" transform="matrix(-0.91, 0.41, -0.53, -1.19, 92.04, 109.98)"> </text><text class="cls-2" transform="translate(89.42 111.17) rotate(159.88) scale(1 1.3)">.</text><text class="cls-2" transform="matrix(-0.96, 0.28, -0.36, -1.25, 86.79, 112.15)"> </text><text class="cls-3" transform="matrix(-0.99, 0.14, -0.19, -1.29, 83.44, 113.23)">Z</text><text class="cls-3" transform="translate(76.14 114.14) rotate(179.96) scale(1 1.3)">I</text><text class="cls-3" transform="translate(72.16 114.43) rotate(-169.59) scale(1 1.3)">M</text><text class="cls-3" transform="matrix(-0.92, -0.4, 0.52, -1.19, 61.84, 112.36)">B</text><text class="cls-3" transform="translate(54.61 109.17) rotate(-145.88) scale(1 1.3)">E</text><text class="cls-3" transform="translate(48.76 105.24) rotate(-134.99) scale(1 1.3)">R</text><text class="cls-3" transform="translate(43.11 99.49) rotate(-124.11) scale(1 1.3)">S</text><text class="cls-3" transform="translate(39.18 93.43) rotate(-116.44) scale(1 1.3)"> </text><text class="cls-2" transform="matrix(-0.38, -0.92, 1.2, -0.49, 37.88, 90.84)">.</text><text class="cls-2" transform="translate(36.78 88.23) rotate(-108.24) scale(1 1.3)"> </text><text class="cls-2" transform="translate(35.63 84.67) rotate(-102.84) scale(1 1.3)"> </text><text class="cls-2" transform="translate(34.82 81) rotate(-97.41) scale(1 1.3)"> </text><text class="cls-2" transform="matrix(-0.03, -1, 1.3, -0.05, 34.36, 77.27)"> </text><circle class="cls-4" cx="76.08" cy="74.2" r="19.03"/></svg>